<svg width="103" height="114" viewBox="0 0 103 114" fill="none" xmlns="http://www.w3.org/2000/svg">
<g clip-path="url(#clip0_139_130)">
<path d="M98.2526 41.6797C78.7405 45.2681 63.3799 55.7572 56.0455 73.147C50.2334 87.0865 56.1839 99.2317 58.6748 103.372C59.2283 100.75 59.9203 98.1276 60.7506 95.5053L60.6122 95.9194C61.0273 95.2293 59.3667 79.2196 61.5809 73.285C61.5809 73.285 61.996 85.1543 62.1344 91.3649L62.2728 91.779C65.1788 84.0501 69.0536 77.0114 73.0667 70.9388C73.0667 70.9388 75.1425 57.2753 78.1869 53.4109C78.1869 53.4109 74.4506 65.9702 75.2809 67.7644V67.9024C85.1061 54.239 95.2082 45.9581 95.2082 45.9581C89.2577 52.4448 84.1374 59.0695 79.9859 65.5562C88.7041 62.2439 97.8374 56.4472 97.8374 56.4472C95.2082 61.4158 78.8789 67.7644 78.6021 67.9024C74.4506 74.6652 71.1294 81.0138 68.5001 86.6724C73.2051 85.2923 88.289 77.8395 88.289 77.8395C83.0304 83.2221 67.5314 88.7426 67.5314 88.7426C63.9334 97.1615 62.1344 103.234 61.5809 104.89C115.551 89.5707 98.2526 41.6797 98.2526 41.6797Z" fill="#C3784B"/>
<path d="M8.71815 67.3516C19.2353 69.2838 27.5384 74.9424 31.4131 84.3273C34.5959 91.9181 31.4131 98.4048 30.0293 100.613C29.7525 99.2329 29.3373 97.7148 28.9222 96.3346L29.0606 96.6106C28.9222 96.1966 29.7525 87.6397 28.507 84.4654C28.507 84.4654 28.2303 90.814 28.2303 94.1264V94.2644C26.7081 90.124 24.6323 86.2596 22.4182 82.9472C22.4182 82.9472 21.3111 75.4944 19.6505 73.4242C19.6505 73.4242 21.5879 80.1869 21.1727 81.153C21.1727 81.153 21.1727 81.153 21.1727 81.291C15.9141 73.8382 10.3788 69.4218 10.3788 69.4218C13.5616 72.8721 16.3293 76.4605 18.5434 79.9109C13.8384 78.1167 8.99491 74.9424 8.99491 74.9424C10.3788 77.5646 19.2353 81.015 19.3737 81.015C21.5879 84.6034 23.3868 88.0537 24.7707 91.0901C22.2798 90.262 14.1151 86.3976 14.1151 86.3976C17.0212 89.2959 25.3242 92.1942 25.3242 92.1942C27.2616 96.7487 28.2303 100.061 28.507 100.889C-0.553575 93.0223 8.71815 67.3516 8.71815 67.3516Z" fill="#C3784B"/>
<path d="M77.7717 44.5786C80.2626 38.7819 82.4768 33.3994 82.3384 29.673C82.3384 28.5689 81.9232 28.0168 81.2313 27.7408C79.5707 27.4648 77.4949 30.5011 71.9596 40.5761C70.7141 42.9224 69.4687 45.2686 68.5 46.7868C68.7768 44.4405 69.4687 40.4381 70.0222 36.7117C72.3747 23.0483 73.897 12.4212 72.098 9.66088C71.5444 8.8328 70.9909 8.8328 70.5757 8.97081C68.2232 9.38485 66.1475 16.4236 61.8576 32.9853C61.1656 35.7456 60.3353 38.6439 59.7818 40.7142C59.9202 38.2299 60.0586 34.9175 60.197 31.6052C61.4424 11.3171 61.5808 1.38001 58.9515 0.137881C58.5363 -0.138148 57.9828 -0.000133447 57.5677 0.137881C55.2151 1.38001 53.1394 13.6633 51.6171 24.9805C51.6171 15.8715 51.202 6.48655 49.9565 4.69236C49.403 3.86427 48.7111 3.86427 48.2959 4.00229C46.2202 4.55435 44.8363 11.179 42.7606 31.1912C42.6222 32.8473 42.4838 34.2275 42.3454 35.3316C41.6535 41.1282 39.301 49.4091 38.1939 53.2735C35.703 47.4769 32.2434 42.3703 30.4444 40.4381C28.3687 38.0919 25.3242 37.5398 23.9404 38.5059C23.2484 39.058 22.6949 40.0241 23.5252 41.4042C26.708 47.0628 29.0606 55.6197 30.0293 66.2468C31.1363 78.6681 32.9353 81.5665 35.0111 85.0168C35.5646 85.9829 36.1182 86.811 36.6717 88.0531C39.1626 93.1597 34.3192 107.927 34.3192 108.065C34.1808 108.479 34.4575 109.031 34.8727 109.169C35.0111 109.169 35.0111 109.169 35.1495 109.169C35.5646 109.169 35.8414 108.893 35.9798 108.617C36.2565 107.927 41.1 93.1597 38.3323 87.3631C37.7788 86.1209 37.2252 85.1548 36.6717 84.1887C34.7343 80.8764 33.0737 77.9781 31.9666 65.9708C30.9979 55.0677 28.6454 46.3727 25.3242 40.5761C25.0474 40.0241 25.1858 39.8861 25.1858 39.8861C25.7394 39.472 27.8151 39.61 29.4757 41.5422C32.105 44.5786 39.8545 56.3098 39.5777 65.1427C39.5777 65.5568 39.9929 65.9708 40.4081 65.9708C40.8232 65.9708 41.2384 65.5568 41.2384 65.1427C41.3767 62.1064 40.5464 58.9321 39.4394 55.7577C39.9929 53.9635 43.4525 43.0604 44.2828 35.4696C44.4212 34.3655 44.5596 32.9853 44.698 31.3292C45.3899 24.8425 47.1889 8.00471 48.8495 5.65846C50.5101 8.41875 50.3717 30.087 49.8182 43.1984C49.8182 43.6125 50.0949 44.0265 50.6485 44.0265C51.0636 44.0265 51.4788 43.7505 51.4788 43.3364C53.2778 24.0144 56.3222 3.45023 58.398 1.65604C60.197 3.58824 59.0899 22.3582 58.5363 31.4672C57.8444 43.0604 57.8444 44.5786 58.5363 45.1306C58.6747 45.2686 59.0899 45.4066 59.3667 45.4066C60.3353 45.2686 60.6121 44.4405 63.5182 33.3994C65.4555 25.9466 69.0535 12.2832 70.8525 10.627C72.3747 13.2493 70.0222 27.1887 68.3616 36.4357C66.4242 48.0289 66.2858 49.2711 67.3929 49.8231C67.6697 49.9611 68.2232 50.0991 68.7768 49.4091C69.7454 48.3049 71.5444 45.1306 73.4818 41.4042C75.696 37.4018 79.1555 30.9151 80.6778 29.535V29.673C80.8162 32.9853 78.602 38.5059 76.2495 43.8885C75.696 45.1306 75.1424 46.5108 74.5889 47.7529L77.0798 46.0967C77.3566 45.6827 77.4949 45.1306 77.7717 44.5786Z" fill="#C3784B"/>
<path d="M56.0454 113.31C56.0454 113.724 56.4605 114 56.8757 114C56.8757 114 56.8757 114 57.0141 114C57.4292 114 57.8444 113.586 57.706 113.033C57.5676 111.239 57.706 109.031 58.1212 106.547L56.7373 105.305C56.1838 108.341 55.907 111.101 56.0454 113.31Z" fill="#C3784B"/>
<path d="M68.5 109.997C68.0848 109.997 67.6697 109.721 67.6697 109.307C67.6697 108.893 67.9464 108.479 68.3616 108.341C68.6384 108.341 91.7485 105.167 101.02 87.501C101.297 87.0869 101.712 86.9489 102.127 87.0869C102.542 87.3629 102.681 87.777 102.542 88.191C92.8555 106.685 68.9151 109.997 68.5 109.997C68.6384 109.997 68.6384 109.997 68.5 109.997Z" fill="#C3784B"/>
<path d="M17.298 101.992C17.1596 101.992 17.0212 101.992 17.0212 101.992C-5.53536 92.745 0.830297 67.3503 0.830297 67.0743C0.968681 66.6602 1.38383 66.3842 1.79898 66.5222C2.21414 66.6602 2.4909 67.0743 2.35252 67.4883C2.07575 68.4544 -3.59799 91.7789 17.4364 100.474C17.8515 100.612 18.1283 101.164 17.8515 101.578C17.8515 101.854 17.5748 101.992 17.298 101.992Z" fill="#C3784B"/>
</g>
<defs>
<clipPath id="clip0_139_130">
<rect width="102.681" height="114" fill="white"/>
</clipPath>
</defs>
</svg>
