<svg width="125" height="125" viewBox="0 0 125 125" fill="none" xmlns="http://www.w3.org/2000/svg">
<g clip-path="url(#clip0_140_345)">
<path d="M29.9227 88.8663C29.9227 88.8663 19.2781 76.2073 31.2219 65.3482L31.806 66.6117C32.5068 64.6394 33.6436 62.8507 35.1317 61.3788L35.2867 62.9046C35.2867 62.9046 37.9806 59.3286 40.4599 58.3511L39.9832 60.163L46.4199 55.7526L45.9432 57.5644L51.7959 54.6678L51.5694 55.538L58.1492 53.75L56.8499 58.6849L58.328 58.1485C58.2372 60.1938 57.9498 62.2255 57.4698 64.2158L58.6618 63.7747C58.0227 65.7972 57.2828 67.7863 56.4447 69.7347L58.6499 68.3758C58.6499 68.3758 56.6831 74.4312 55.503 75.7782L57.5056 74.8246C57.5056 74.8246 56.3136 79.1277 53.9296 80.7846C53.9296 80.7846 50.282 93.3482 33.0219 90.7497C33.0219 90.7497 29.7916 97.2818 29.8154 99.6897C29.8154 99.6897 28.3135 100.131 28.3731 98.8434C28.4327 97.556 39.6732 69.2579 50.878 61.4861C50.9019 61.5576 43.7618 63.739 29.9227 88.8663Z" fill="#C3784B"/>
<path d="M74.4558 58.328C74.4558 58.328 89.6777 51.915 96.4721 66.5766L95.0893 66.7554C96.7632 68.023 98.1284 69.6531 99.0825 71.5234L97.6641 71.1897C97.6641 71.1897 100.239 74.7657 100.465 77.4953L98.8561 76.4941L101.133 83.956L99.5474 82.9547L100.561 89.4034L99.7977 88.9266L99.5355 95.7329L95.2085 93.0152V94.6244C93.2847 93.9256 91.4326 93.0435 89.6777 91.9901L89.7611 93.1821C88.0333 91.9783 86.3664 90.6894 84.7666 89.32L85.3984 91.8351C85.3984 91.8351 80.2132 88.128 79.2834 86.5903L79.5933 88.7955C79.5933 88.7955 75.8505 86.34 74.9207 83.6341C74.9207 83.6341 64.0258 76.3868 71.6785 60.7001C71.6785 60.7001 66.4217 55.6698 64.1093 54.9665C64.1093 54.9665 64.1093 53.405 65.3013 53.8461C66.4933 54.2871 90.1783 73.4664 94.243 86.483C94.243 86.483 94.2907 79.0211 74.4558 58.328Z" fill="#C3784B"/>
<path d="M80.2131 108.391C80.2131 108.391 74.4796 123.887 59.1028 118.845L59.9133 117.653C57.8532 118.012 55.7386 117.902 53.7269 117.331L54.9189 116.449C54.9189 116.449 50.5085 115.853 48.4105 114.184L50.2224 113.708L43.2134 110.275L45.0253 109.798L39.6255 106.126L40.4957 105.9L35.7277 101.048L40.6625 99.7492L39.4705 98.6764C41.3102 97.758 43.2343 97.0195 45.216 96.4712L44.2743 95.6964C46.3579 95.2531 48.4624 94.9149 50.58 94.6832L48.3033 93.4316C48.3033 93.4316 54.5374 92.1681 56.3016 92.5376L54.4897 91.2621C54.4897 91.2621 58.8405 90.2132 61.451 91.3694C61.451 91.3694 74.1935 88.3656 80.4157 104.672C80.4157 104.672 87.6869 104.267 89.7729 103.075C89.7729 103.075 90.8934 104.172 89.7729 104.744C88.6525 105.316 58.4591 109.512 46.1696 103.552C46.1219 103.623 51.5336 108.713 80.2131 108.391Z" fill="#C3784B"/>
<path d="M52.1535 117.01C49.6264 116.937 47.2204 115.911 45.4187 114.138H28.0274C26.5853 114.136 25.1698 113.75 23.9268 113.019C22.6838 112.288 21.6583 111.238 20.9563 109.978C20.2542 108.719 19.9008 107.295 19.9327 105.853C19.9646 104.411 20.3806 103.004 21.1376 101.777L28.1466 90.4408C26.9545 88.4841 25.983 86.4013 25.25 84.2305L16.2624 98.7609C14.9672 100.856 14.2551 103.259 14.1997 105.721C14.1442 108.183 14.7474 110.615 15.9469 112.766C17.1463 114.917 18.8986 116.709 21.0224 117.956C23.1462 119.203 25.5646 119.86 28.0274 119.859H55.2289C53.7006 119.328 52.2144 118.682 50.7827 117.928L52.1535 117.01Z" fill="#C3784B"/>
<path d="M47.6 53.7503L51.8316 52.1649L55.646 46.0023C56.3729 44.8293 57.3873 43.8613 58.593 43.1901C59.7987 42.5189 61.1558 42.1665 62.5358 42.1665C63.9157 42.1665 65.2728 42.5189 66.4785 43.1901C67.6842 43.8613 68.6986 44.8293 69.4255 46.0023L75.3855 55.6574C77.5044 55.242 79.6654 55.082 81.8223 55.1807L74.265 42.9865C73.0256 40.9829 71.2948 39.3292 69.2368 38.1824C67.1788 37.0356 64.8619 36.4336 62.506 36.4336C60.15 36.4336 57.8331 37.0356 55.7751 38.1824C53.7171 39.3292 51.9863 40.9829 50.7469 42.9865L44.179 53.6191L48.053 52.2483L47.6 53.7503Z" fill="#C3784B"/>
<path d="M108.738 98.7607L101.586 87.1387C101.674 88.5836 101.674 90.0326 101.586 91.4776L101.18 90.8577L100.751 96.627L103.934 101.765C104.691 102.992 105.107 104.399 105.139 105.841C105.171 107.282 104.817 108.707 104.115 109.966C103.413 111.226 102.388 112.275 101.145 113.007C99.9018 113.738 98.4863 114.124 97.0442 114.126H78.7589C77.3568 116.611 75.2269 118.608 72.6559 119.847H96.9727C99.4355 119.848 101.854 119.191 103.978 117.944C106.102 116.697 107.854 114.905 109.053 112.754C110.253 110.603 110.856 108.171 110.8 105.709C110.745 103.246 110.033 100.844 108.738 98.7488V98.7607Z" fill="#C3784B"/>
<path d="M62.0709 30.626C61.9192 30.626 61.7737 30.5657 61.6664 30.4584C61.5591 30.3511 61.4988 30.2056 61.4988 30.0538V5.71319C61.4988 5.55512 61.5616 5.40352 61.6733 5.29175C61.7851 5.17998 61.9367 5.11719 62.0948 5.11719C62.2528 5.11719 62.4044 5.17998 62.5162 5.29175C62.628 5.40352 62.6908 5.55512 62.6908 5.71319V30.0538C62.6911 30.1331 62.6748 30.2117 62.6431 30.2844C62.6115 30.3571 62.565 30.4224 62.5067 30.4762C62.4484 30.53 62.3796 30.5711 62.3046 30.5969C62.2295 30.6227 62.15 30.6326 62.0709 30.626V30.626Z" fill="#C3784B"/>
<path d="M52.6779 33.2968C52.5871 33.2969 52.4975 33.2752 52.4167 33.2338C52.3358 33.1923 52.266 33.1322 52.213 33.0584L37.8137 13.4023C37.7632 13.3426 37.7255 13.2731 37.7029 13.1982C37.6804 13.1233 37.6734 13.0446 37.6824 12.9669C37.6915 12.8892 37.7164 12.8141 37.7556 12.7464C37.7948 12.6787 37.8474 12.6198 37.9103 12.5732C37.9732 12.5267 38.045 12.4935 38.1212 12.4758C38.1974 12.4581 38.2764 12.4562 38.3533 12.4702C38.4303 12.4842 38.5036 12.5139 38.5686 12.5574C38.6337 12.6008 38.6891 12.6572 38.7315 12.7229L53.1309 32.3671C53.1923 32.4526 53.2289 32.5534 53.2367 32.6583C53.2446 32.7633 53.2233 32.8684 53.1752 32.962C53.1271 33.0557 53.0542 33.1343 52.9643 33.1891C52.8745 33.244 52.7713 33.273 52.666 33.273L52.6779 33.2968Z" fill="#C3784B"/>
<path d="M71.9645 33.2968C71.8593 33.2969 71.756 33.2678 71.6662 33.213C71.5764 33.1581 71.5034 33.0795 71.4553 32.9859C71.4073 32.8922 71.386 32.7871 71.3938 32.6822C71.4016 32.5772 71.4382 32.4764 71.4996 32.3909L85.899 12.7229C85.9414 12.6572 85.9969 12.6008 86.0619 12.5574C86.127 12.5139 86.2002 12.4842 86.2772 12.4702C86.3542 12.4562 86.4332 12.4581 86.5094 12.4758C86.5856 12.4935 86.6573 12.5267 86.7202 12.5732C86.7831 12.6198 86.8358 12.6787 86.875 12.7464C86.9141 12.8141 86.939 12.8892 86.9481 12.9669C86.9572 13.0446 86.9502 13.1233 86.9276 13.1982C86.905 13.2731 86.8673 13.3426 86.8168 13.4023L72.4294 33.0346C72.3791 33.1128 72.3104 33.1775 72.2294 33.2232C72.1484 33.2689 72.0575 33.2942 71.9645 33.2968Z" fill="#C3784B"/>
</g>
<defs>
<clipPath id="clip0_140_345">
<rect width="125" height="125" fill="white"/>
</clipPath>
</defs>
</svg>
