<svg width="125" height="125" viewBox="0 0 125 125" fill="none" xmlns="http://www.w3.org/2000/svg">
<g clip-path="url(#clip0_140_346)">
<path d="M76.1714 101.307C76.2875 101.075 76.2875 100.727 76.1714 100.495C75.3585 97.4755 74.7779 94.4565 72.9199 91.7858C71.8748 90.2763 71.7587 88.8829 72.8038 87.3734C73.3844 86.4445 73.7328 85.3995 74.3134 84.2383C71.9909 84.2383 70.8297 82.7288 69.4362 81.3354C69.0878 80.9871 68.6233 80.7548 68.1588 80.6387C66.5331 80.1743 64.9073 79.8259 63.2816 79.5937C62.8171 79.4776 62.5849 79.2453 62.3526 78.7809C61.8881 77.6197 61.3075 76.4586 60.7269 75.4135H60.6108C60.6108 76.1102 60.6108 76.923 60.6108 77.6197C59.914 77.8519 59.5657 77.6197 59.3334 77.1552C57.8238 75.0652 56.1981 72.9751 54.6885 70.885C54.4562 70.5367 54.3401 70.1883 54.3401 69.7238C54.3401 68.0982 54.3401 66.5887 54.3401 64.9631C54.3401 64.6147 54.224 64.1503 53.9917 63.9181C52.9466 62.1763 51.9015 60.5507 50.8564 58.809C50.508 58.1123 50.0435 57.9961 49.3467 58.1123C46.6759 58.5767 44.1212 59.1573 41.4503 59.1573C39.9407 59.1573 38.8956 58.5767 37.7344 57.6478C38.5472 56.9511 39.3601 56.3705 40.173 55.6738C39.4762 55.7899 38.7795 55.9061 38.0827 56.0222C37.8505 56.0222 37.6182 56.2544 37.5021 56.4866C35.4119 60.0862 34.0184 63.8019 33.2055 67.866C32.8572 69.6077 32.741 71.3495 32.5088 73.2073C32.5088 74.4846 32.5088 75.878 32.5088 77.1552C32.741 78.6648 32.8572 80.0581 33.0894 81.5676C35.4119 93.5276 41.9148 102.468 52.5982 108.39C57.127 110.945 62.1204 112.222 67.3459 112.571C67.5782 112.571 67.6943 112.687 67.9266 112.687C69.3201 112.687 70.7135 112.687 71.9909 112.687C72.9199 112.571 73.8489 112.454 74.7779 112.338C74.7779 111.99 74.6618 111.526 74.6618 111.177C74.5456 109.435 74.1973 107.81 74.7779 106.068C75.4746 104.559 75.823 102.933 76.1714 101.307Z" fill="#C4784B"/>
<path d="M87.3192 53.6989C86.8547 53.2345 86.5063 52.77 86.2741 52.0733C85.6935 49.8671 84.7645 48.0092 82.9065 46.4997C81.513 45.3386 79.8873 45.4547 78.4938 44.9902C78.2615 46.0353 78.3777 46.732 79.1905 47.4287C80.0034 48.1254 80.8163 48.9382 81.513 49.751C82.2098 50.4477 82.7904 51.2605 83.371 51.9572C82.2097 53.0022 81.0485 53.1183 79.655 52.4216C79.3067 52.3055 79.0744 52.0733 78.726 52.0733C77.797 51.8411 77.4487 51.3766 77.6809 50.4477C77.6809 50.2154 77.6809 49.751 77.4487 49.6349C76.5197 49.1704 75.5907 48.8221 74.6617 48.4737C74.4294 49.6349 74.0811 50.6799 73.965 51.8411C73.8488 52.77 73.5005 53.1183 72.5715 53.2345C71.9908 53.3506 71.0619 53.3506 70.8296 53.6989C70.5974 54.1634 70.7135 54.9762 70.8296 55.6729C70.8296 55.9051 71.0619 56.1373 71.178 56.2535C72.3392 56.4857 73.6166 56.7179 74.8939 56.9502C75.1262 55.6729 75.3584 54.3956 75.5907 53.0022C76.7519 53.2345 78.0293 53.2345 79.0744 53.6989C80.1195 54.1634 81.0485 54.5117 82.2097 54.3956C82.6742 54.3956 83.0226 54.5117 83.2549 54.9762C84.0677 56.9502 85.229 58.5758 86.8547 59.9692C87.4353 60.4336 87.8998 61.0142 88.3643 61.4787C89.2933 62.4076 89.2933 62.7559 88.5966 64.1493C86.2741 63.2204 84.3 64.0332 82.0936 65.0783C79.8873 66.2394 78.0293 67.5167 76.5197 69.6068C75.4746 71.0002 74.0811 72.2774 73.8488 74.2514C73.8488 74.3675 73.6166 74.5998 73.5005 74.5998C72.9198 74.5998 72.2231 74.4836 71.6425 74.3675C70.9457 74.1353 70.249 73.7869 69.5522 73.4386C69.32 73.3225 69.0878 73.3225 68.9716 73.4386C68.0426 73.7869 67.2298 74.2514 66.3008 74.7159C66.533 75.7609 66.7653 76.6898 66.9975 77.6188C66.9975 77.7349 67.1136 77.7349 67.1136 77.851C67.8104 76.2254 69.0878 76.1093 70.4812 76.3415C70.4812 77.2704 70.3651 78.0832 70.3651 79.1283C71.6425 79.2444 72.5715 79.825 73.2682 80.87C73.7327 81.6828 74.4294 81.7989 75.2423 81.4506C75.9391 81.2184 76.7519 80.87 77.4487 80.9861C79.1905 81.2183 81.0485 81.6828 82.7904 82.0312C83.8355 82.2634 84.8806 82.3795 85.9257 82.7279C86.2741 82.844 86.7386 82.9601 86.9708 83.3084C88.8288 85.7469 91.0352 87.6047 93.706 88.882C94.4028 89.2303 95.0995 89.6948 95.9124 90.1593C96.1446 90.2754 96.2607 90.3915 96.493 90.5076C95.0995 93.1783 93.8221 95.7328 92.4287 98.2874C92.3125 98.5196 92.0803 98.6357 91.848 98.7518C90.6868 99.3324 89.5256 99.7969 88.3643 100.377C88.0159 100.494 87.7837 100.842 87.6676 101.19C87.2031 102.351 86.8547 103.396 86.3902 104.558C86.2741 104.906 85.9257 105.37 85.5773 105.603C83.9516 106.764 82.442 107.809 80.7001 108.854C79.4228 109.551 79.4228 110.828 79.0744 111.989C79.1905 111.989 79.3067 111.989 79.3067 111.989C79.4228 111.989 79.5389 111.989 79.5389 111.873C86.2741 110.131 91.9642 106.764 96.8414 101.887C102.299 96.3134 105.783 89.6948 107.176 81.915C107.409 80.2894 107.525 78.6638 107.757 77.1543C107.757 75.9931 107.757 74.9481 107.757 73.7869C107.757 73.5547 107.641 73.3225 107.641 73.0902C107.176 66.82 105.318 61.0142 102.067 55.789C101.486 54.744 101.486 54.744 100.325 54.9762C100.209 54.9762 100.093 54.9762 99.9767 54.9762C98.351 55.0923 96.6091 55.3245 94.9834 55.4407C94.4028 55.4407 94.1705 55.6729 93.9383 56.1373C93.5899 56.834 93.0093 57.5307 92.5448 58.3435C91.848 57.8791 91.1513 57.5307 90.6868 57.0663C89.5256 55.6729 88.4804 54.6278 87.3192 53.6989Z" fill="#C4784B"/>
<path d="M70.3652 33.9597C76.9842 18.284 87.4354 18.4001 87.4354 18.4001C75.9391 21.6514 71.8748 35.8175 71.8748 35.8175C87.2031 38.3721 91.8481 16.5423 91.8481 16.5423C91.8481 16.5423 80.3518 14.6844 73.965 18.8646C67.4621 23.1609 70.3652 33.9597 70.3652 33.9597Z" fill="#C4784B"/>
<path d="M52.4821 32.1015C58.056 37.0945 68.1588 34.7722 68.1588 34.7722C68.6233 35.1205 69.2039 36.1655 69.6684 37.3267C69.0878 37.3267 68.5072 37.3267 67.9266 37.3267C66.6492 37.4428 65.3718 37.6751 64.2106 37.7912C57.2432 38.9523 50.9725 41.8552 45.6308 46.616C44.1212 47.8932 42.8438 49.4027 41.4503 50.7961C41.4503 50.9122 41.5664 50.9122 41.5664 51.0284C41.7987 50.9122 42.0309 50.9122 42.2632 50.7961C44.934 49.9833 47.4888 49.2866 50.2757 49.0544C52.2498 48.9383 54.2239 48.4738 55.8497 47.3127C56.3142 46.9643 56.7787 46.9643 57.2432 47.1965C58.1721 47.4288 59.2173 47.8932 60.2624 47.8932C61.8881 48.0093 63.3977 47.7771 65.0235 47.661C65.2557 47.661 65.6041 47.4288 65.8363 47.1965C66.3008 46.4998 66.7653 45.8032 67.2298 45.1065C67.3459 44.8742 67.6943 44.7581 67.9266 44.7581C68.8555 44.8742 69.9007 45.1065 70.8297 44.9903C72.6876 44.8742 74.5456 44.642 76.4036 44.4098C76.6358 44.4098 76.9842 44.1775 77.2165 44.0614C77.9132 43.3647 78.61 42.668 79.3067 41.9713C80.5841 40.6941 82.0937 40.4618 83.8355 40.9263C84.5323 41.1585 85.3451 41.0424 86.158 41.0424C86.158 40.9263 86.158 40.9263 86.158 40.8102C83.2549 39.4168 80.1196 38.4879 76.8681 37.9073C75.4746 37.6751 74.0811 37.5589 72.6876 37.3267C72.107 37.3267 71.5264 37.3267 70.9458 37.3267C61.5397 16.3098 40.4052 13.523 40.4052 13.523C54.9207 11.8974 68.3911 28.1536 68.3911 28.1536C67.8104 25.1345 69.9007 20.8383 69.9007 20.8383C55.5013 1.67917 35.4119 13.7552 35.4119 13.7552C42.1471 16.6581 46.9081 27.1085 52.4821 32.1015ZM60.6108 44.8742C60.4946 44.8742 60.2624 44.7581 60.1463 44.7581C59.4495 44.4098 58.7528 43.9453 58.056 43.4808C58.985 42.7841 59.7979 42.2036 60.6108 41.5069H60.7269C61.772 42.2036 62.8171 42.0875 63.8622 41.623C64.3267 41.3908 64.559 41.5069 64.7912 41.9713C65.0235 42.4358 65.3718 42.9003 65.7202 43.4808C63.8622 44.0614 62.2365 44.4098 60.6108 44.8742ZM75.3585 39.1846C75.4746 39.0684 75.7069 39.0684 75.9391 39.1846C76.6359 39.5329 77.3326 39.9974 78.1455 40.4618C76.9842 41.3908 75.9391 42.4358 74.6617 43.0164C73.7328 43.4808 72.4554 43.4808 71.2942 43.4808C70.7135 43.4808 70.249 42.9003 69.5523 42.5519C70.249 42.2036 70.9458 41.7391 71.5264 41.3908C71.6425 41.3908 71.7586 41.2746 71.8748 41.1585C73.1521 40.4618 74.3134 39.8813 75.3585 39.1846Z" fill="#C4784B"/>
<path d="M104.854 52.0728C104.273 51.26 103.112 51.6083 103.112 52.5373C107.989 59.7364 110.66 68.5612 109.963 77.9666C108.454 98.0546 91.9642 113.962 71.8747 114.775C49.1145 115.704 30.4185 97.4741 30.4185 75.0637C30.4185 66.7034 32.5087 59.7364 36.9214 53.3501C36.9214 52.4211 35.6441 52.0728 35.1796 52.8856C30.6508 59.9687 28.3283 68.4451 28.7928 77.5021C29.954 98.1707 46.4436 115.124 67.1137 116.633C91.4997 118.491 111.937 99.0997 111.937 75.1798C111.821 66.5873 109.267 58.6914 104.854 52.0728Z" fill="#C4784B"/>
<path d="M21.1286 104.093C20.8963 104.093 20.6641 103.861 20.6641 103.629V95.6168C20.6641 95.3846 20.8963 95.1523 21.1286 95.1523C21.3608 95.1523 21.5931 95.3846 21.5931 95.6168V103.629C21.5931 103.861 21.3608 104.093 21.1286 104.093Z" fill="#C4784B"/>
<path d="M21.1286 116.052C20.8963 116.052 20.6641 115.82 20.6641 115.588V107.576C20.6641 107.344 20.8963 107.111 21.1286 107.111C21.3608 107.111 21.5931 107.344 21.5931 107.576V115.588C21.5931 115.82 21.3608 116.052 21.1286 116.052Z" fill="#C4784B"/>
<path d="M13 105.603C13 105.371 13.1161 105.139 13.3484 105.139H18.9223C19.1546 105.139 19.2707 105.371 19.2707 105.603C19.2707 105.835 19.1546 106.068 18.9223 106.068H13.3484C13.1161 106.068 13 105.951 13 105.603Z" fill="#C4784B"/>
<path d="M23.1028 105.603C23.1028 105.371 23.2189 105.139 23.4512 105.139H29.0251C29.2573 105.139 29.3735 105.371 29.3735 105.603C29.3735 105.835 29.2573 106.068 29.0251 106.068H23.4512C23.2189 106.068 23.1028 105.951 23.1028 105.603Z" fill="#C4784B"/>
<path d="M97.0736 32.6811C96.8414 32.6811 96.6091 32.4489 96.6091 32.2167V24.2047C96.6091 23.9725 96.8414 23.7402 97.0736 23.7402C97.3059 23.7402 97.5381 23.9725 97.5381 24.2047V32.1006C97.5381 32.4489 97.3059 32.6811 97.0736 32.6811Z" fill="#C4784B"/>
<path d="M97.0736 44.5249C96.8414 44.5249 96.6091 44.2927 96.6091 44.0604V36.0484C96.6091 35.8162 96.8414 35.584 97.0736 35.584C97.3059 35.584 97.5381 35.8162 97.5381 36.0484V44.0604C97.5381 44.2927 97.3059 44.5249 97.0736 44.5249Z" fill="#C4784B"/>
<path d="M88.9451 34.191C88.9451 33.9588 89.0612 33.7266 89.2934 33.7266H94.8674C95.0996 33.7266 95.2158 33.9588 95.2158 34.191C95.2158 34.4233 95.0996 34.6555 94.8674 34.6555H89.2934C89.1773 34.6555 88.9451 34.4233 88.9451 34.191Z" fill="#C4784B"/>
<path d="M99.0479 34.191C99.0479 33.9588 99.164 33.7266 99.3962 33.7266H104.97C105.202 33.7266 105.319 33.9588 105.319 34.191C105.319 34.4233 105.202 34.6555 104.97 34.6555H99.3962C99.164 34.6555 99.0479 34.4233 99.0479 34.191Z" fill="#C4784B"/>
<path d="M37.502 33.8426C37.3859 33.8426 37.2698 33.7265 37.2698 33.6104V29.0818C37.2698 28.9657 37.3859 28.8496 37.502 28.8496C37.6181 28.8496 37.7343 28.9657 37.7343 29.0818V33.6104C37.7343 33.7265 37.6181 33.8426 37.502 33.8426Z" fill="#C4784B"/>
<path d="M37.502 40.577C37.3859 40.577 37.2698 40.4608 37.2698 40.3447V35.8162C37.2698 35.7001 37.3859 35.584 37.502 35.584C37.6181 35.584 37.7343 35.7001 37.7343 35.8162V40.3447C37.7343 40.4608 37.6181 40.577 37.502 40.577Z" fill="#C4784B"/>
<path d="M32.8572 34.6561C32.8572 34.5399 32.9733 34.4238 33.0894 34.4238H36.2248C36.3409 34.4238 36.457 34.5399 36.457 34.6561C36.457 34.7722 36.3409 34.8883 36.2248 34.8883H33.0894C32.9733 35.0044 32.8572 34.8883 32.8572 34.6561Z" fill="#C4784B"/>
<path d="M38.6633 34.6561C38.6633 34.5399 38.7795 34.4238 38.8956 34.4238H42.0309C42.147 34.4238 42.2632 34.5399 42.2632 34.6561C42.2632 34.7722 42.147 34.8883 42.0309 34.8883H38.8956C38.6633 35.0044 38.6633 34.8883 38.6633 34.6561Z" fill="#C4784B"/>
</g>
<defs>
<clipPath id="clip0_140_346">
<rect width="98.8214" height="123.896" fill="white" transform="translate(13 1)"/>
</clipPath>
</defs>
</svg>
