<svg width="22" height="20" viewBox="0 0 22 20" fill="none" xmlns="http://www.w3.org/2000/svg">
<path d="M9.23242 18.25C9.23242 18.5467 9.14445 18.8367 8.97963 19.0834C8.8148 19.33 8.58054 19.5223 8.30645 19.6358C8.03236 19.7494 7.73076 19.7791 7.43979 19.7212C7.14881 19.6633 6.88154 19.5204 6.67176 19.3107C6.46198 19.1009 6.31912 18.8336 6.26124 18.5426C6.20337 18.2517 6.23307 17.9501 6.3466 17.676C6.46013 17.4019 6.65239 17.1676 6.89907 17.0028C7.14574 16.838 7.43575 16.75 7.73242 16.75C8.13025 16.75 8.51178 16.908 8.79308 17.1893C9.07439 17.4706 9.23242 17.8522 9.23242 18.25ZM17.4824 16.75C17.1857 16.75 16.8957 16.838 16.6491 17.0028C16.4024 17.1676 16.2101 17.4019 16.0966 17.676C15.9831 17.9501 15.9534 18.2517 16.0112 18.5426C16.0691 18.8336 16.212 19.1009 16.4218 19.3107C16.6315 19.5204 16.8988 19.6633 17.1898 19.7212C17.4808 19.7791 17.7824 19.7494 18.0564 19.6358C18.3305 19.5223 18.5648 19.33 18.7296 19.0834C18.8944 18.8367 18.9824 18.5467 18.9824 18.25C18.9824 17.8522 18.8244 17.4706 18.5431 17.1893C18.2618 16.908 17.8802 16.75 17.4824 16.75ZM21.7387 4.95625L19.2637 13.6188C19.1278 14.0883 18.8432 14.5012 18.4527 14.7953C18.0623 15.0894 17.5869 15.249 17.098 15.25H8.1168C7.62794 15.249 7.15259 15.0894 6.76211 14.7953C6.37163 14.5012 6.08708 14.0883 5.95117 13.6188L3.47617 4.96563V4.94687L2.55742 1.75H0.982422C0.78351 1.75 0.592744 1.67098 0.452092 1.53033C0.31144 1.38968 0.232422 1.19891 0.232422 1C0.232422 0.801088 0.31144 0.610322 0.452092 0.46967C0.592744 0.329018 0.78351 0.25 0.982422 0.25H2.55742C2.8832 0.251181 3.19986 0.357736 3.46008 0.553747C3.7203 0.749757 3.91012 1.0247 4.00117 1.3375L4.76055 4H21.0168C21.133 3.99988 21.2476 4.02674 21.3516 4.07848C21.4556 4.13021 21.5462 4.20541 21.6162 4.29812C21.6862 4.39084 21.7337 4.49855 21.7549 4.61276C21.7762 4.72697 21.7706 4.84456 21.7387 4.95625V4.95625ZM20.023 5.5H5.1918L7.39492 13.2062C7.43977 13.363 7.5345 13.5009 7.66476 13.5991C7.79502 13.6972 7.95372 13.7502 8.1168 13.75H17.098C17.2611 13.7502 17.4198 13.6972 17.5501 13.5991C17.6803 13.5009 17.7751 13.363 17.8199 13.2062L20.023 5.5Z" fill="#003333"/>
</svg>
