<svg width="20" height="20" viewBox="0 0 20 20" fill="none" xmlns="http://www.w3.org/2000/svg">
<path fill-rule="evenodd" clip-rule="evenodd" d="M8.26567 0.0151367C3.70927 0.0151367 0.015625 3.70879 0.015625 8.26518C0.015625 12.8215 3.70927 16.5152 8.26567 16.5152C10.2735 16.5152 12.1147 15.7971 13.5449 14.6051L18.705 19.7652C18.9979 20.0581 19.4728 20.0581 19.7657 19.7652C20.0585 19.4723 20.0585 18.9974 19.7657 18.7045L14.6056 13.5444C15.7976 12.1142 16.5157 10.273 16.5157 8.26518C16.5157 3.70879 12.822 0.0151367 8.26567 0.0151367ZM1.51562 8.26518C1.51562 4.53721 4.5377 1.51514 8.26567 1.51514C11.9936 1.51514 15.0157 4.53721 15.0157 8.26518C15.0157 10.1293 14.261 11.8158 13.0386 13.0381C11.8163 14.2605 10.1298 15.0152 8.26567 15.0152C4.5377 15.0152 1.51562 11.9931 1.51562 8.26518Z" fill="#003333"/>
</svg>
