<svg width="20" height="20" viewBox="0 0 20 20" fill="none" xmlns="http://www.w3.org/2000/svg">
<path d="M19.7407 18.2287C18.3413 15.8179 16.1012 14.0085 13.4501 13.1474C14.7208 12.3918 15.7083 11.2398 16.2609 9.86846C16.8135 8.49714 16.9005 6.98232 16.5087 5.55673C16.1168 4.13113 15.2678 2.87362 14.0919 1.97737C12.9161 1.08111 11.4785 0.595703 10.0001 0.595703C8.5216 0.595703 7.08403 1.08111 5.90819 1.97737C4.73235 2.87362 3.88329 4.13113 3.49145 5.55673C3.09961 6.98232 3.18666 8.49714 3.73922 9.86846C4.29179 11.2398 5.2793 12.3918 6.55007 13.1474C3.89891 14.0085 1.65888 15.8179 0.259441 18.2287C0.200744 18.3138 0.160293 18.4102 0.140631 18.5117C0.120969 18.6133 0.12252 18.7178 0.145188 18.8187C0.167855 18.9196 0.211148 19.0147 0.272347 19.0981C0.333546 19.1815 0.411328 19.2513 0.500805 19.3032C0.590283 19.3551 0.689521 19.3879 0.792285 19.3995C0.895049 19.4112 0.999117 19.4015 1.09795 19.371C1.19678 19.3406 1.28824 19.29 1.36659 19.2224C1.44493 19.1549 1.50846 19.0719 1.55319 18.9787C2.41042 17.4974 3.64211 16.2676 5.1247 15.4126C6.60728 14.5577 8.28863 14.1076 10.0001 14.1076C11.7115 14.1076 13.3928 14.5577 14.8754 15.4126C16.358 16.2676 17.5897 17.4974 18.4469 18.9787C18.4917 19.0719 18.5552 19.1549 18.6335 19.2224C18.7119 19.29 18.8033 19.3406 18.9022 19.371C19.001 19.4015 19.1051 19.4112 19.2078 19.3995C19.3106 19.3879 19.4099 19.3551 19.4993 19.3032C19.5888 19.2513 19.6666 19.1815 19.7278 19.0981C19.789 19.0147 19.8323 18.9196 19.8549 18.8187C19.8776 18.7178 19.8792 18.6133 19.8595 18.5117C19.8398 18.4102 19.7994 18.3138 19.7407 18.2287V18.2287ZM4.75007 7.35368C4.75007 6.31532 5.05797 5.30029 5.63485 4.43693C6.21173 3.57358 7.03167 2.90067 7.99098 2.50331C8.95029 2.10595 10.0059 2.00198 11.0243 2.20455C12.0427 2.40713 12.9782 2.90714 13.7124 3.64137C14.4466 4.37559 14.9466 5.31105 15.1492 6.32945C15.3518 7.34785 15.2478 8.40345 14.8504 9.36276C14.4531 10.3221 13.7802 11.142 12.9168 11.7189C12.0535 12.2958 11.0384 12.6037 10.0001 12.6037C8.60768 12.6037 7.27232 12.0506 6.28776 11.066C5.30319 10.0814 4.75007 8.74606 4.75007 7.35368Z" fill="#003333"/>
</svg>
