<svg width="131" height="19" viewBox="0 0 131 19" fill="none" xmlns="http://www.w3.org/2000/svg">
<path d="M5.21608 1.20007H8.09608C9.47208 1.20007 10.5841 1.40007 11.4321 1.80007C12.2961 2.20007 12.9361 2.75207 13.3521 3.45607C13.7841 4.14407 14.0161 4.92807 14.0481 5.80807C14.0801 6.62407 13.9441 7.36807 13.6401 8.04007C13.3361 8.71207 12.9201 9.27207 12.3921 9.72007C11.8641 10.1681 11.2561 10.4961 10.5681 10.7041C9.89608 10.8961 9.19208 10.9441 8.45608 10.8481C7.73608 10.7361 7.03208 10.4561 6.34408 10.0081V9.76807C6.34408 9.76807 6.44008 9.76807 6.63208 9.76807C6.84008 9.76807 7.09608 9.73607 7.40008 9.67207C7.72008 9.60807 8.04808 9.48807 8.38408 9.31207C8.73608 9.13607 9.06408 8.86407 9.36808 8.49607C9.67208 8.12807 9.90408 7.64007 10.0641 7.03207C10.1281 6.82407 10.1681 6.59207 10.1841 6.33607C10.2161 6.06407 10.2241 5.81607 10.2081 5.59207C10.1921 4.56807 9.91208 3.75207 9.36808 3.14407C8.84008 2.52007 8.08808 2.20807 7.11208 2.20807H5.45608C5.45608 2.20807 5.43208 2.12807 5.38408 1.96807C5.35208 1.79207 5.31208 1.62407 5.26408 1.46407C5.23208 1.28807 5.21608 1.20007 5.21608 1.20007ZM5.52808 1.20007V18.0001H1.92808V1.20007H5.52808ZM2.00008 16.2481V18.0001H0.0800781V17.7601C0.0960782 17.7601 0.144078 17.7601 0.224078 17.7601C0.320078 17.7601 0.376078 17.7601 0.392078 17.7601C0.808078 17.7601 1.16008 17.6161 1.44808 17.3281C1.75208 17.0241 1.91208 16.6641 1.92808 16.2481H2.00008ZM2.00008 2.95207H1.92808C1.92808 2.53607 1.77608 2.18407 1.47208 1.89607C1.16808 1.59207 0.808078 1.44007 0.392078 1.44007C0.376078 1.44007 0.328078 1.44007 0.248078 1.44007C0.168078 1.44007 0.120078 1.44007 0.104078 1.44007L0.0800781 1.20007H2.00008V2.95207ZM5.45608 16.2481H5.52808C5.54408 16.6641 5.69608 17.0241 5.98408 17.3281C6.28808 17.6161 6.64808 17.7601 7.06408 17.7601C7.08008 17.7601 7.12808 17.7601 7.20808 17.7601C7.30408 17.7601 7.36008 17.7601 7.37608 17.7601V18.0001H5.45608V16.2481Z" fill="#43433E"/>
<path d="M21.2781 1.20007V11.7601C21.2781 12.8961 21.4621 13.8801 21.8301 14.7121C22.2141 15.5441 22.7501 16.1841 23.4381 16.6321C24.1421 17.0801 24.9741 17.3041 25.9341 17.3041C26.9101 17.3041 27.7501 17.0961 28.4541 16.6801C29.1741 16.2481 29.7261 15.6401 30.1101 14.8561C30.4941 14.0721 30.6861 13.1441 30.6861 12.0721V1.20007H32.4141V11.9281C32.4141 13.2401 32.1341 14.3761 31.5741 15.3361C31.0301 16.2961 30.2381 17.0401 29.1981 17.5681C28.1741 18.0801 26.9341 18.3361 25.4781 18.3361C23.7821 18.3361 22.3501 18.0801 21.1821 17.5681C20.0141 17.0401 19.1341 16.3041 18.5421 15.3601C17.9661 14.4001 17.6781 13.2641 17.6781 11.9521V1.20007H21.2781ZM17.7501 1.20007V2.64007H17.6781C17.6781 2.28807 17.5501 2.00007 17.2941 1.77607C17.0541 1.55207 16.7581 1.44007 16.4061 1.44007C16.4061 1.44007 16.3421 1.44007 16.2141 1.44007C16.0861 1.44007 16.0221 1.44007 16.0221 1.44007V1.20007H17.7501ZM22.9341 1.20007V1.44007C22.9341 1.44007 22.8701 1.44007 22.7421 1.44007C22.6141 1.44007 22.5501 1.44007 22.5501 1.44007C22.1981 1.44007 21.8941 1.55207 21.6381 1.77607C21.3981 2.00007 21.2781 2.28807 21.2781 2.64007H21.2301V1.20007H22.9341ZM30.7581 1.20007V2.64007H30.6861C30.6861 2.28807 30.5581 2.00007 30.3021 1.77607C30.0621 1.55207 29.7661 1.44007 29.4141 1.44007C29.4141 1.44007 29.3501 1.44007 29.2221 1.44007C29.0941 1.44007 29.0301 1.44007 29.0301 1.44007V1.20007H30.7581ZM34.0701 1.20007V1.44007C34.0701 1.44007 34.0061 1.44007 33.8781 1.44007C33.7501 1.44007 33.6861 1.44007 33.6861 1.44007C33.3341 1.44007 33.0301 1.55207 32.7741 1.77607C32.5341 2.00007 32.4141 2.28807 32.4141 2.64007H32.3661V1.20007H34.0701Z" fill="#43433E"/>
<path d="M41.0689 1.20007H44.1649C44.8849 1.20007 45.5889 1.28007 46.2769 1.44007C46.9649 1.60007 47.5729 1.85607 48.1009 2.20807C48.6449 2.56007 49.0769 3.02407 49.3969 3.60007C49.7169 4.17607 49.8769 4.88807 49.8769 5.73607C49.8769 6.40807 49.7329 7.08007 49.4449 7.75207C49.1729 8.40807 48.7489 8.97607 48.1729 9.45607C47.5969 9.92007 46.8529 10.2001 45.9409 10.2961C46.4529 10.4561 46.9169 10.7441 47.3329 11.1601C47.7649 11.5761 48.1169 11.9921 48.3889 12.4081C48.4049 12.4401 48.4929 12.5841 48.6529 12.8401C48.8289 13.0961 49.0369 13.4161 49.2769 13.8001C49.5329 14.1681 49.7969 14.5441 50.0689 14.9281C50.3409 15.3121 50.5889 15.6481 50.8129 15.9361C51.1649 16.3681 51.4849 16.7201 51.7729 16.9921C52.0609 17.2481 52.3649 17.4401 52.6849 17.5681C53.0049 17.6801 53.3729 17.7441 53.7889 17.7601V18.0001H51.4369C50.5729 18.0001 49.7889 17.9281 49.0849 17.7841C48.3809 17.6241 47.7569 17.3601 47.2129 16.9921C46.6689 16.6241 46.1969 16.1281 45.7969 15.5041C45.6689 15.3121 45.5249 15.0721 45.3649 14.7841C45.2209 14.4801 45.0689 14.1601 44.9089 13.8241C44.7489 13.4881 44.5889 13.1681 44.4289 12.8641C44.2849 12.5441 44.1569 12.2561 44.0449 12.0001C43.9329 11.7441 43.8529 11.5441 43.8049 11.4001C43.5969 10.8881 43.3489 10.5041 43.0609 10.2481C42.7889 9.99207 42.4929 9.84007 42.1729 9.79207V9.55207C42.2209 9.55207 42.3169 9.55207 42.4609 9.55207C42.6049 9.55207 42.7569 9.55207 42.9169 9.55207C43.3489 9.55207 43.7649 9.46407 44.1649 9.28807C44.5809 9.11207 44.9489 8.82407 45.2689 8.42407C45.5889 8.02407 45.8129 7.47207 45.9409 6.76807C45.9729 6.62407 45.9969 6.45607 46.0129 6.26407C46.0449 6.07207 46.0529 5.85607 46.0369 5.61607C45.9889 4.46407 45.7009 3.62407 45.1729 3.09607C44.6449 2.55207 43.9889 2.27207 43.2049 2.25607C42.9809 2.24007 42.7329 2.24007 42.4609 2.25607C42.2049 2.25607 41.9649 2.25607 41.7409 2.25607C41.5329 2.25607 41.3889 2.25607 41.3089 2.25607C41.3089 2.24007 41.2849 2.15207 41.2369 1.99207C41.2049 1.81607 41.1649 1.64007 41.1169 1.46407C41.0849 1.28807 41.0689 1.20007 41.0689 1.20007ZM41.3809 1.20007V18.0001H37.7809V1.20007H41.3809ZM37.8529 16.2481V18.0001H35.9329V17.7601C35.9489 17.7601 35.9969 17.7601 36.0769 17.7601C36.1729 17.7601 36.2289 17.7601 36.2449 17.7601C36.6609 17.7601 37.0129 17.6161 37.3009 17.3281C37.6049 17.0241 37.7649 16.6641 37.7809 16.2481H37.8529ZM37.8529 2.95207H37.7809C37.7649 2.53607 37.6049 2.18407 37.3009 1.89607C37.0129 1.59207 36.6609 1.44007 36.2449 1.44007C36.2289 1.44007 36.1729 1.44007 36.0769 1.44007C35.9969 1.44007 35.9489 1.44007 35.9329 1.44007V1.20007H37.8529V2.95207ZM41.3089 16.2481H41.3809C41.3809 16.6641 41.5329 17.0241 41.8369 17.3281C42.1409 17.6161 42.5009 17.7601 42.9169 17.7601C42.9489 17.7601 43.0049 17.7601 43.0849 17.7601C43.1649 17.7601 43.2049 17.7601 43.2049 17.7601V18.0001H41.3089V16.2481Z" fill="#43433E"/>
<path d="M59.3173 1.20007V18.0001H55.7173V1.20007H59.3173ZM65.6533 16.9681L66.2293 18.0001H59.2453V16.9681H65.6533ZM64.7653 9.21607V10.2241H59.2453V9.21607H64.7653ZM65.9413 1.20007V2.23207H59.2453V1.20007H65.9413ZM67.4053 13.0801L66.3013 18.0001H61.5973L62.4613 16.9681C63.2613 16.9681 63.9653 16.8161 64.5733 16.5121C65.1813 16.1921 65.7013 15.7441 66.1333 15.1681C66.5653 14.5761 66.9093 13.8801 67.1653 13.0801H67.4053ZM64.7653 10.1761V12.4801H64.5253V12.2881C64.5253 11.6961 64.3333 11.2081 63.9493 10.8241C63.5653 10.4401 63.0773 10.2401 62.4853 10.2241V10.1761H64.7653ZM64.7653 6.96007V9.26407H62.4853V9.21607C63.0773 9.20007 63.5653 9.00007 63.9493 8.61607C64.3333 8.21607 64.5253 7.72007 64.5253 7.12807V6.96007H64.7653ZM65.9413 2.16007V4.96807H65.7013V4.68007C65.7013 3.94407 65.4773 3.35207 65.0293 2.90407C64.5973 2.45607 64.0053 2.22407 63.2533 2.20807V2.16007H65.9413ZM65.9413 0.768066V1.46407L63.0133 1.20007C63.3653 1.20007 63.7333 1.17607 64.1173 1.12807C64.5173 1.08007 64.8853 1.02407 65.2213 0.960067C65.5573 0.896067 65.7973 0.832067 65.9413 0.768066ZM55.7893 16.2481V18.0001H53.8693V17.7601C53.8693 17.7601 53.9173 17.7601 54.0133 17.7601C54.1253 17.7601 54.1813 17.7601 54.1813 17.7601C54.5973 17.7601 54.9493 17.6161 55.2373 17.3281C55.5413 17.0241 55.7013 16.6641 55.7173 16.2481H55.7893ZM55.7893 2.95207H55.7173C55.7013 2.53607 55.5413 2.18407 55.2373 1.89607C54.9493 1.59207 54.5973 1.44007 54.1813 1.44007C54.1813 1.44007 54.1253 1.44007 54.0133 1.44007C53.9173 1.44007 53.8693 1.44007 53.8693 1.44007V1.20007H55.7893V2.95207Z" fill="#43433E"/>
<path d="M75.0334 0.864067C75.3534 0.864067 75.7454 0.880067 76.2094 0.912067C76.6894 0.944067 77.1774 0.992067 77.6734 1.05607C78.1854 1.10407 78.6254 1.16007 78.9934 1.22407C79.3774 1.27207 79.6414 1.32807 79.7854 1.39207L79.4974 4.63207H79.2574C79.2574 3.80007 78.9454 3.13607 78.3214 2.64007C77.7134 2.12807 76.8974 1.87207 75.8734 1.87207C74.9454 1.87207 74.1934 2.09607 73.6174 2.54407C73.0574 2.99207 72.7614 3.53607 72.7294 4.17607C72.7134 4.65607 72.8654 5.07207 73.1854 5.42407C73.5054 5.77607 73.9134 6.10407 74.4094 6.40807L78.9934 9.38407C79.7294 9.80007 80.2814 10.3441 80.6494 11.0161C81.0334 11.6881 81.2014 12.4721 81.1534 13.3681C81.0734 14.9361 80.4734 16.1601 79.3534 17.0401C78.2334 17.9041 76.7134 18.3361 74.7934 18.3361C74.0894 18.3361 73.4014 18.2721 72.7294 18.1441C72.0734 18.0321 71.4894 17.8721 70.9774 17.6641C70.4654 17.4401 70.0574 17.1761 69.7534 16.8721C69.6254 16.5201 69.5694 16.0961 69.5854 15.6001C69.6014 15.1041 69.6734 14.6001 69.8014 14.0881C69.9454 13.5761 70.1214 13.1521 70.3294 12.8161H70.5454C70.4814 13.6321 70.6254 14.3921 70.9774 15.0961C71.3454 15.7841 71.8734 16.3361 72.5614 16.7521C73.2654 17.1521 74.0974 17.3441 75.0574 17.3281C76.1134 17.3121 76.9294 17.0481 77.5054 16.5361C78.0814 16.0081 78.3694 15.3761 78.3694 14.6401C78.3694 14.1441 78.2174 13.6961 77.9134 13.2961C77.6254 12.8961 77.1454 12.5121 76.4734 12.1441L72.2734 9.36007C71.4254 8.88007 70.8094 8.26407 70.4254 7.51207C70.0414 6.76007 69.8894 5.94407 69.9694 5.06407C70.0494 4.23207 70.2974 3.50407 70.7134 2.88007C71.1294 2.24007 71.6974 1.74407 72.4174 1.39207C73.1534 1.04007 74.0254 0.864067 75.0334 0.864067ZM79.8094 1.10407L79.7614 1.60807H76.9294V1.10407H79.8094Z" fill="#43433E"/>
<path d="M92.3918 7.65607L98.6798 16.2721C99.0478 16.7521 99.4238 17.1201 99.8078 17.3761C100.192 17.6161 100.632 17.7441 101.128 17.7601V18.0001H99.1598C98.9838 18.0001 98.6878 17.9921 98.2718 17.9761C97.8718 17.9601 97.4158 17.8961 96.9038 17.7841C96.3918 17.6721 95.8718 17.4801 95.3438 17.2081C94.8318 16.9201 94.3838 16.5201 93.9998 16.0081C93.9198 15.8961 93.7598 15.6801 93.5198 15.3601C93.2798 15.0401 92.9998 14.6561 92.6798 14.2081C92.3598 13.7601 92.0238 13.3041 91.6718 12.8401C91.3358 12.3601 91.0158 11.9121 90.7118 11.4961C90.4078 11.0801 90.1598 10.7441 89.9678 10.4881C89.7918 10.2161 89.7038 10.0801 89.7038 10.0801L92.3918 7.65607ZM98.4158 1.36807L91.1918 9.93607L89.7038 10.0801L96.3038 1.36807H98.4158ZM100.096 1.20007V1.41607H99.9998C99.4718 1.41607 98.9758 1.52807 98.5118 1.75207C98.0638 1.96007 97.6798 2.24007 97.3598 2.59207L95.4158 2.54407C95.6078 2.27207 95.6398 2.01607 95.5118 1.77607C95.3838 1.53607 95.1598 1.41607 94.8398 1.41607H94.5998V1.20007H100.096ZM88.9358 1.20007V18.0001H85.3358V1.20007H88.9358ZM85.4078 16.2481V18.0001H83.4878V17.7601C83.5038 17.7601 83.5518 17.7601 83.6318 17.7601C83.7278 17.7601 83.7838 17.7601 83.7998 17.7601C84.2158 17.7601 84.5678 17.6161 84.8558 17.3281C85.1598 17.0241 85.3198 16.6641 85.3358 16.2481H85.4078ZM85.4078 2.95207H85.3358C85.3198 2.53607 85.1598 2.18407 84.8558 1.89607C84.5678 1.59207 84.2158 1.44007 83.7998 1.44007C83.7838 1.44007 83.7278 1.44007 83.6318 1.44007C83.5518 1.44007 83.5038 1.44007 83.4878 1.44007V1.20007H85.4078V2.95207ZM88.8638 16.2481H88.9358C88.9518 16.6641 89.1038 17.0241 89.3918 17.3281C89.6958 17.6161 90.0558 17.7601 90.4718 17.7601C90.4878 17.7601 90.5358 17.7601 90.6158 17.7601C90.7118 17.7601 90.7678 17.7601 90.7838 17.7601V18.0001H88.8638V16.2481ZM88.8638 2.95207V1.20007H90.7838V1.44007C90.7678 1.44007 90.7118 1.44007 90.6158 1.44007C90.5358 1.44007 90.4878 1.44007 90.4718 1.44007C90.0558 1.44007 89.6958 1.59207 89.3918 1.89607C89.1038 2.18407 88.9518 2.53607 88.9358 2.95207H88.8638Z" fill="#43433E"/>
<path d="M107.46 1.20007V18.0001H103.86V1.20007H107.46ZM103.932 16.2481V18.0001H102.012V17.7601C102.012 17.7601 102.06 17.7601 102.156 17.7601C102.268 17.7601 102.324 17.7601 102.324 17.7601C102.74 17.7601 103.092 17.6161 103.38 17.3281C103.684 17.0241 103.844 16.6641 103.86 16.2481H103.932ZM103.932 2.95207H103.86C103.844 2.53607 103.684 2.18407 103.38 1.89607C103.092 1.59207 102.74 1.44007 102.324 1.44007C102.324 1.44007 102.268 1.44007 102.156 1.44007C102.06 1.44007 102.012 1.44007 102.012 1.44007V1.20007H103.932V2.95207ZM107.388 16.2481H107.46C107.476 16.6641 107.628 17.0241 107.916 17.3281C108.22 17.6161 108.58 17.7601 108.996 17.7601C108.996 17.7601 109.044 17.7601 109.14 17.7601C109.236 17.7601 109.292 17.7601 109.308 17.7601V18.0001H107.388V16.2481ZM107.388 2.95207V1.20007H109.308V1.44007C109.292 1.44007 109.236 1.44007 109.14 1.44007C109.044 1.44007 108.996 1.44007 108.996 1.44007C108.58 1.44007 108.22 1.59207 107.916 1.89607C107.628 2.18407 107.476 2.53607 107.46 2.95207H107.388Z" fill="#43433E"/>
<path d="M113.237 0.840067L128.549 15.4321L128.837 18.3361L113.525 3.76807L113.237 0.840067ZM113.357 16.2961V18.0001H111.365V17.7601C111.365 17.7601 111.437 17.7601 111.581 17.7601C111.725 17.7601 111.805 17.7601 111.821 17.7601C112.221 17.7601 112.565 17.6161 112.853 17.3281C113.141 17.0401 113.285 16.6961 113.285 16.2961H113.357ZM116.717 16.2961C116.717 16.6961 116.861 17.0401 117.149 17.3281C117.437 17.6161 117.781 17.7601 118.181 17.7601C118.197 17.7601 118.277 17.7601 118.421 17.7601C118.565 17.7601 118.637 17.7601 118.637 17.7601V18.0001H116.645V16.2961H116.717ZM113.237 0.840067L116.693 4.51207L116.717 18.0001H113.285V3.84007C113.285 2.94407 113.237 2.22407 113.141 1.68007C113.045 1.12007 112.997 0.840067 112.997 0.840067H113.237ZM128.765 1.20007V15.2641C128.765 15.8561 128.789 16.3921 128.837 16.8721C128.885 17.3361 128.933 17.6961 128.981 17.9521C129.029 18.2081 129.053 18.3361 129.053 18.3361H128.837L125.357 14.4481V1.20007H128.765ZM130.685 1.20007V1.44007C130.685 1.44007 130.613 1.44007 130.469 1.44007C130.325 1.44007 130.253 1.44007 130.253 1.44007C129.853 1.44007 129.509 1.58407 129.221 1.87207C128.933 2.14407 128.781 2.48807 128.765 2.90407H128.693V1.20007H130.685ZM123.413 1.20007H125.405V2.90407H125.357C125.341 2.48807 125.189 2.14407 124.901 1.87207C124.629 1.58407 124.285 1.44007 123.869 1.44007C123.869 1.44007 123.797 1.44007 123.653 1.44007C123.509 1.44007 123.429 1.44007 123.413 1.44007V1.20007Z" fill="#43433E"/>
</svg>
