<svg width="56" height="55" viewBox="0 0 56 55" fill="none" xmlns="http://www.w3.org/2000/svg">
<path d="M28 0C20.5292 0 19.5965 0.034375 16.6631 0.165C13.7344 0.3025 11.7406 0.763125 9.9875 1.44375C8.17938 2.145 6.64396 3.08687 5.11542 4.61542C3.58687 6.14396 2.64271 7.67708 1.94375 9.4875C1.26313 11.2406 0.800208 13.2344 0.665 16.1631C0.5275 19.0965 0.5 20.0292 0.5 27.5C0.5 34.9708 0.534375 35.9035 0.665 38.8369C0.8025 41.7633 1.26313 43.7594 1.94375 45.5125C2.63421 47.3478 3.71658 49.0104 5.11542 50.3846C6.48876 51.7844 8.15164 52.8669 9.9875 53.5563C11.7429 54.2346 13.7367 54.6998 16.6631 54.835C19.5965 54.9725 20.5292 55 28 55C35.4708 55 36.4035 54.9656 39.3369 54.835C42.2633 54.6975 44.2594 54.2346 46.0125 53.5563C47.8474 52.8649 49.5098 51.7827 50.8846 50.3846C52.2849 49.0116 53.3675 47.3486 54.0563 45.5125C54.7346 43.7594 55.1998 41.7633 55.335 38.8369C55.4725 35.9035 55.5 34.9708 55.5 27.5C55.5 20.0292 55.4656 19.0965 55.335 16.1631C55.1975 13.2367 54.7346 11.2383 54.0563 9.4875C53.3655 7.65238 52.2831 5.98979 50.8846 4.61542C49.5122 3.21439 47.8491 2.13168 46.0125 1.44375C44.2594 0.763125 42.2633 0.300208 39.3369 0.165C36.4035 0.0275 35.4708 0 28 0ZM28 4.95C35.3402 4.95 36.2156 4.98667 39.1146 5.11271C41.7958 5.23875 43.251 5.68333 44.2181 6.06375C45.506 6.56104 46.4181 7.15688 47.3852 8.11708C48.3454 9.07958 48.9413 9.99396 49.4385 11.2819C49.8144 12.249 50.2635 13.7042 50.385 16.3854C50.5156 19.2867 50.5454 20.1575 50.5454 27.5C50.5454 34.8425 50.511 35.7156 50.3758 38.6146C50.236 41.2958 49.7892 42.751 49.411 43.7181C48.9637 44.9115 48.2605 45.9925 47.3508 46.8852C46.462 47.7957 45.3817 48.4971 44.1883 48.9385C43.2258 49.3144 41.7477 49.7635 39.0665 49.885C36.1469 50.0156 35.2875 50.0454 27.9313 50.0454C20.5727 50.0454 19.7133 50.011 16.796 49.8758C14.1125 49.736 12.6344 49.2892 11.6719 48.911C10.4777 48.4692 9.3978 47.7652 8.51167 46.8508C7.59175 45.9679 6.88622 44.8861 6.44917 43.6883C6.07104 42.7258 5.62646 41.2477 5.48667 38.5665C5.38354 35.679 5.34688 34.7875 5.34688 27.4656C5.34688 20.1415 5.38354 19.2477 5.48667 16.3258C5.62646 13.6446 6.07104 12.1688 6.44917 11.2063C6.93042 9.9 7.54688 9.00625 8.51167 8.04146C9.47188 7.08125 10.3679 6.4625 11.6719 5.98354C12.6344 5.60313 14.0804 5.15625 16.7617 5.01875C19.6835 4.91563 20.5429 4.88125 27.8969 4.88125L28 4.95V4.95ZM28 13.3788C26.1456 13.3788 24.3093 13.744 22.596 14.4537C20.8828 15.1633 19.326 16.2035 18.0148 17.5148C16.7035 18.826 15.6633 20.3828 14.9537 22.096C14.244 23.8093 13.8788 25.6456 13.8788 27.5C13.8788 29.3544 14.244 31.1907 14.9537 32.904C15.6633 34.6172 16.7035 36.174 18.0148 37.4852C19.326 38.7965 20.8828 39.8367 22.596 40.5463C24.3093 41.256 26.1456 41.6213 28 41.6213C31.7452 41.6213 35.337 40.1335 37.9852 37.4852C40.6335 34.837 42.1213 31.2452 42.1213 27.5C42.1213 23.7548 40.6335 20.163 37.9852 17.5148C35.337 14.8665 31.7452 13.3788 28 13.3788V13.3788ZM28 36.6667C22.9354 36.6667 18.8333 32.5646 18.8333 27.5C18.8333 22.4354 22.9354 18.3333 28 18.3333C33.0646 18.3333 37.1667 22.4354 37.1667 27.5C37.1667 32.5646 33.0646 36.6667 28 36.6667ZM45.9804 12.8219C45.9486 13.6758 45.587 14.4842 44.9716 15.077C44.3562 15.6699 43.5349 16.0012 42.6804 16.0012C41.8259 16.0012 41.0046 15.6699 40.3892 15.077C39.7739 14.4842 39.4122 13.6758 39.3804 12.8219C39.3804 11.9467 39.7281 11.1073 40.347 10.4884C40.9658 9.86955 41.8052 9.52188 42.6804 9.52188C43.5556 9.52188 44.395 9.86955 45.0139 10.4884C45.6327 11.1073 45.9804 11.9467 45.9804 12.8219V12.8219Z" fill="#C3784B"/>
</svg>
